<?xml version="1.0" encoding="UTF-8"?><svg id="Layer_2" xmlns="http://www.w3.org/2000/svg" xmlns:xlink="http://www.w3.org/1999/xlink" viewBox="0 0 221.66 68.36"><defs><style>.cls-1{clipPath:url(#clippath);}.cls-2{fill:#fff;}.cls-3{clipRule:evenodd;fill:none;}.cls-4{clipPath:url(#clippath-1);}.cls-5{fill:#f8aa30;}.cls-5,.cls-6,.cls-7,.cls-8,.cls-9,.cls-10,.cls-11,.cls-12,.cls-13,.cls-14,.cls-15,.cls-16,.cls-17,.cls-18,.cls-19,.cls-20,.cls-21,.cls-22,.cls-23,.cls-24,.cls-25,.cls-26,.cls-27,.cls-28,.cls-29,.cls-30,.cls-31,.cls-32,.cls-33,.cls-34,.cls-35,.cls-36,.cls-37,.cls-38,.cls-39,.cls-40,.cls-41,.cls-42,.cls-43,.cls-44,.cls-45,.cls-46,.cls-47,.cls-48,.cls-49,.cls-50,.cls-51,.cls-52,.cls-53,.cls-54,.cls-55,.cls-56,.cls-57,.cls-58,.cls-59,.cls-60,.cls-61,.cls-62,.cls-63,.cls-64,.cls-65,.cls-66,.cls-67,.cls-68,.cls-69,.cls-70,.cls-71,.cls-72,.cls-73,.cls-74,.cls-75,.cls-76,.cls-77,.cls-78,.cls-79,.cls-80,.cls-81,.cls-82,.cls-83,.cls-84,.cls-85,.cls-86,.cls-87,.cls-88,.cls-89,.cls-90,.cls-91,.cls-92,.cls-93,.cls-94,.cls-95,.cls-96,.cls-97,.cls-98,.cls-99,.cls-100,.cls-101,.cls-102,.cls-103,.cls-104,.cls-105,.cls-106,.cls-107,.cls-108,.cls-109,.cls-110{fillRule:evenodd;}.cls-6{fill:#f8ad2d;}.cls-7{fill:#f8ac2e;}.cls-8{fill:#f8ae2d;}.cls-9{fill:#f8ab2f;}.cls-10{fill:#f8ae2c;}.cls-11{fill:#fab624;}.cls-12{fill:#fab625;}.cls-13{fill:#fab426;}.cls-14{fill:#fab526;}.cls-15{fill:#fab723;}.cls-16{fill:#fab822;}.cls-17{fill:#f9b129;}.cls-18{fill:#f9b12a;}.cls-19{fill:#f9b02b;}.cls-20{fill:#f9b327;}.cls-21{fill:#f9b328;}.cls-22{fill:#f9b229;}.cls-23{fill:#f9af2b;}.cls-24{fill:#f59b3a;}.cls-25{fill:#f59a3a;}.cls-26{fill:#f59b39;}.cls-27{fill:#f7a632;}.cls-28{fill:#f7a732;}.cls-29{fill:#f7a434;}.cls-30{fill:#f7a533;}.cls-31{fill:#f7a930;}.cls-32{fill:#f7a633;}.cls-33{fill:#f7a831;}.cls-34{fill:#f5993a;}.cls-35{fill:#fec80d;}.cls-36{fill:#fec80e;}.cls-37{fill:#fec70d;}.cls-38{fill:#f28d3f;}.cls-39{fill:#f2873f;}.cls-40{fill:#f2883f;}.cls-41{fill:#f28a3f;}.cls-42{fill:#f28b3f;}.cls-43{fill:#f28c3f;}.cls-44{fill:#f07c3e;}.cls-45{fill:#f2893f;}.cls-46{fill:#f07b3e;}.cls-47{fill:#f1813e;}.cls-48{fill:#f1863e;}.cls-49{fill:#f1823e;}.cls-50{fill:#f1853e;}.cls-51{fill:#f1863f;}.cls-52{fill:#f1833e;}.cls-53{fill:#f1843e;}.cls-54{fill:#f3913f;}.cls-55{fill:#f38f3f;}.cls-56{fill:#f0813e;}.cls-57{fill:#f07f3e;}.cls-58{fill:#f0803e;}.cls-59{fill:#f07d3e;}.cls-60{fill:#f3923e;}.cls-61{fill:#f38e3f;}.cls-62{fill:#f3933e;}.cls-63{fill:#f07e3e;}.cls-64{fill:#f38d3f;}.cls-65{fill:#f3903f;}.cls-66{fill:#ef793e;}.cls-67{fill:#ef7a3e;}.cls-68{fill:#f4953d;}.cls-69{fill:#f4943d;}.cls-70{fill:#f4973b;}.cls-71{fill:#ef743d;}.cls-72{fill:#ef733d;}.cls-73{fill:#ef783e;}.cls-74{fill:#ef773d;}.cls-75{fill:#ef763d;}.cls-76{fill:#ef753d;}.cls-77{fill:#f4983b;}.cls-78{fill:#fbbd1c;}.cls-79{fill:#fbbb1f;}.cls-80{fill:#fbba20;}.cls-81{fill:#fdc411;}.cls-82{fill:#fdc412;}.cls-83{fill:#fbbc1d;}.cls-84{fill:#fbbc1e;}.cls-85{fill:#fdc60e;}.cls-86{fill:#f4963c;}.cls-87{fill:#f4993b;}.cls-88{fill:#f6a335;}.cls-89{fill:#f6a235;}.cls-90{fill:#f6a334;}.cls-91{fill:#f6a037;}.cls-92{fill:#f6a036;}.cls-93{fill:#f6a136;}.cls-94{fill:#f69e37;}.cls-95{fill:#f69f37;}.cls-96{fill:#f59c39;}.cls-97{fill:#f59d38;}.cls-98{fill:#f59e38;}.cls-99{fill:#fdc70c;}.cls-100{fill:#fdc50f;}.cls-101{fill:#fdc314;}.cls-102{fill:#fcc018;}.cls-103{fill:#fcc216;}.cls-104{fill:#fcc215;}.cls-105{fill:#fbb922;}.cls-106{fill:#fbb921;}.cls-107{fill:#fcbe1b;}.cls-108{fill:#fcc117;}.cls-109{fill:#fcbf19;}.cls-110{fill:#fcbf1a;}</style><clipPath id="clippath"><path class="cls-3" d="M22.59,13.68c-.27-1.45-.54-2.74-.81-4.19-.35-1.52-.77-2.96-1.29-4.94L19.3,0l-2.41,3.97c-3.22,5.45-6.77,9.68-10.4,13.99-.74,.94-1.55,1.96-2.22,2.67-2.37,2.97-3.54,4.69-3.87,6.76C0,29.54,.59,31.44,1.68,34.85l1.17,3.49c2.17,6.52,7.58,8.36,13.9,4.36-2.82,.46-6.12,.02-7.55-1.78-1.74-2.09-.49-3.89,.76-5.68,1.62-2.34,3.55-4.38,5.41-6.35,2.01-2.12,3.94-4.17,5.56-6.51,1.03-1.41,1.61-2.8,1.79-4.26,.19-1.46,.15-2.84-.12-4.43Zm-3.88,3.78c-.05,.84-.41,1.7-1.15,2.64-1.4,2.11-3.25,4.07-5.11,6.04-2.38,2.52-4.83,5.11-6.73,8.22l-.17-.76c-.92-2.81-1.42-4.32-1.22-5.47,.12-1.23,1.08-2.56,3-4.9l.07-.08c.89-.94,1.55-1.81,2.14-2.59,2.89-3.37,5.63-6.74,8.28-10.49v.31c.35,1.37,.62,2.51,.81,3.88,.19,1.22,.3,2.36,.09,3.21Z"/></clipPath><clipPath id="clippath-1"><path class="cls-3" d="M34.78,33.51l-1.17-3.49c-2.1-6.45-7.58-8.36-13.89-4.2,2.81-.61,6.12-.17,7.62,1.7,1.74,2.09,.41,3.82-.84,5.61-1.62,2.34-3.55,4.38-5.48,6.43-1.93,2.04-3.86,4.09-5.48,6.43-.95,1.48-1.52,2.88-1.71,4.33-.27,1.38-.15,2.83,.13,4.43,.19,1.37,.38,2.74,.81,4.19,.27,1.44,.69,2.89,1.21,4.86l1.2,4.56,2.41-3.97c3.29-5.37,6.77-9.68,10.4-13.99,.74-.94,1.63-1.88,2.22-2.66,2.37-2.97,3.54-4.69,3.94-6.69,.4-2.15-.27-4.12-1.36-7.54Zm-2.57,6.8c-.27,1.23-1.15,2.48-3.15,4.91-.81,1.02-1.56,1.8-2.22,2.66-2.74,3.37-5.55,6.66-8.12,10.48l-.09-.38c-.34-1.37-.61-2.51-.72-3.81-.27-1.29-.29-2.36-.17-3.28,.05-.85,.49-1.62,1.15-2.64,1.39-2.1,3.25-4.07,5.04-5.96,2.45-2.59,4.83-5.11,6.81-8.3l.25,.83c.84,2.73,1.42,4.32,1.23,5.47Z"/></clipPath></defs><g id="Layer_1-2"><g><g><g class="cls-1"><polygon class="cls-104" points="18.92 10.52 15.9 10.06 18.92 10.06 18.92 10.52"/><polygon class="cls-103" points="18.92 11.11 12.01 10.06 15.9 10.06 18.92 10.52 18.92 11.11"/><polygon class="cls-108" points="18.92 11.69 8.13 10.06 12.01 10.06 18.92 11.11 18.92 11.69"/><polygon class="cls-102" points="18.92 12.28 4.94 10.17 4.96 10.06 8.13 10.06 18.92 11.69 18.92 12.28"/><polygon class="cls-109" points="18.92 12.86 4.85 10.74 4.94 10.17 18.92 12.28 18.92 12.86"/><polygon class="cls-110" points="18.92 13.44 4.77 11.31 4.85 10.74 18.92 12.86 18.92 13.44"/><polygon class="cls-107" points="18.92 14.03 4.68 11.88 4.77 11.31 18.92 13.44 18.92 14.03"/><polygon class="cls-78" points="18.92 14.61 4.6 12.46 4.68 11.88 18.92 14.03 18.92 14.61"/><polygon class="cls-83" points="18.92 15.2 4.51 13.03 4.6 12.46 18.92 14.61 18.92 15.2"/><polygon class="cls-84" points="18.92 15.78 4.42 13.6 4.51 13.03 18.92 15.2 18.92 15.78"/><polygon class="cls-79" points="18.92 16.37 4.34 14.17 4.42 13.6 18.92 15.78 18.92 16.37"/><polygon class="cls-80" points="18.92 16.95 4.25 14.74 4.34 14.17 18.92 16.37 18.92 16.95"/><polygon class="cls-106" points="18.92 17.54 4.16 15.31 4.25 14.74 18.92 16.95 18.92 17.54"/><polygon class="cls-105" points="18.92 18.12 4.13 15.89 4.13 15.57 4.16 15.31 18.92 17.54 18.92 18.12"/><polygon class="cls-16" points="18.92 18.71 4.13 16.48 4.13 15.89 18.92 18.12 18.92 18.71"/><polygon class="cls-15" points="18.92 19.29 4.13 17.06 4.13 16.48 18.92 18.71 18.92 19.29"/><polygon class="cls-11" points="18.92 19.88 4.13 17.65 4.13 17.06 18.92 19.29 18.92 19.88"/><polygon class="cls-12" points="18.92 20.46 4.13 18.23 4.13 17.65 18.92 19.88 18.92 20.46"/><polygon class="cls-14" points="18.92 21.05 4.13 18.82 4.13 18.23 18.92 20.46 18.92 21.05"/><polygon class="cls-13" points="18.92 21.63 4.13 19.4 4.13 18.82 18.92 21.05 18.92 21.63"/><polygon class="cls-20" points="18.92 22.22 4.13 19.99 4.13 19.4 18.92 21.63 18.92 22.22"/><polygon class="cls-21" points="18.92 22.8 4.13 20.57 4.13 19.99 18.92 22.22 18.92 22.8"/><polygon class="cls-22" points="18.92 23.39 4.13 21.16 4.13 20.57 18.92 22.8 18.92 23.39"/><polygon class="cls-17" points="18.92 23.97 4.13 21.74 4.13 21.16 18.92 23.39 18.92 23.97"/><polygon class="cls-18" points="18.92 24.56 4.13 22.33 4.13 21.74 18.92 23.97 18.92 24.56"/><polygon class="cls-19" points="18.92 25.14 4.13 22.91 4.13 22.33 18.92 24.56 18.92 25.14"/><polygon class="cls-23" points="18.92 25.73 4.13 23.5 4.13 22.91 18.92 25.14 18.92 25.73"/><polygon class="cls-10" points="18.92 26.31 4.13 24.08 4.13 23.5 18.92 25.73 18.92 26.31"/><polygon class="cls-8" points="18.92 26.89 4.13 24.67 4.13 24.08 18.92 26.31 18.92 26.89"/><polygon class="cls-6" points="18.92 27.48 4.13 25.25 4.13 24.67 18.92 26.89 18.92 27.48"/><polygon class="cls-7" points="18.92 28.06 4.13 25.84 4.13 25.25 18.92 27.48 18.92 28.06"/><polygon class="cls-9" points="18.92 28.65 4.13 26.42 4.13 25.84 18.92 28.06 18.92 28.65"/><polygon class="cls-9" points="18.92 29.23 4.13 27 4.13 26.42 18.92 28.65 18.92 29.23"/><polygon class="cls-5" points="18.92 29.82 4.13 27.59 4.13 27 18.92 29.23 18.92 29.82"/><polygon class="cls-31" points="18.92 30.04 18.87 30.4 4.13 28.17 4.13 27.59 18.92 29.82 18.92 30.04"/><polygon class="cls-33" points="18.87 30.4 18.78 30.97 4.13 28.76 4.13 28.17 18.87 30.4"/><polygon class="cls-33" points="18.78 30.97 18.7 31.54 4.13 29.34 4.13 28.76 18.78 30.97"/><polygon class="cls-28" points="18.7 31.54 18.61 32.11 4.13 29.93 4.13 29.34 18.7 31.54"/><polygon class="cls-27" points="18.61 32.11 18.52 32.68 4.13 30.51 4.13 29.93 18.61 32.11"/><polygon class="cls-32" points="18.52 32.68 18.44 33.25 4.13 31.1 4.13 30.51 18.52 32.68"/><polygon class="cls-30" points="18.44 33.25 18.35 33.83 4.13 31.68 4.13 31.1 18.44 33.25"/><polygon class="cls-29" points="18.35 33.83 18.27 34.36 17.98 34.36 4.13 32.27 4.13 31.68 18.35 33.83"/><polygon class="cls-90" points="14.1 34.36 4.13 32.85 4.13 32.27 17.98 34.36 14.1 34.36"/><polygon class="cls-88" points="10.22 34.36 4.13 33.44 4.13 32.85 14.1 34.36 10.22 34.36"/><polygon class="cls-89" points="6.34 34.36 4.13 34.02 4.13 33.44 10.22 34.36 6.34 34.36"/><polygon class="cls-93" points="4.13 34.02 6.34 34.36 4.13 34.36 4.13 34.02"/><polygon class="cls-36" points="22.9 .13 22.07 0 22.9 0 22.9 .13"/><polygon class="cls-35" points="22.9 .7 18.25 0 22.07 0 22.9 .13 22.9 .7"/><polygon class="cls-35" points="22.9 1.28 14.43 0 18.25 0 22.9 .7 22.9 1.28"/><polygon class="cls-35" points="22.9 1.85 10.62 0 14.43 0 22.9 1.28 22.9 1.85"/><polygon class="cls-37" points="22.9 2.43 6.8 0 10.62 0 22.9 1.85 22.9 2.43"/><polygon class="cls-37" points="22.9 3 2.98 0 6.8 0 22.9 2.43 22.9 3"/><polygon class="cls-99" points="22.9 3.58 2.36 .48 2.43 0 2.98 0 22.9 3 22.9 3.58"/><polygon class="cls-99" points="22.9 4.15 2.27 1.04 2.36 .48 22.9 3.58 22.9 4.15"/><polygon class="cls-99" points="22.9 4.73 2.19 1.61 2.27 1.04 22.9 4.15 22.9 4.73"/><polygon class="cls-99" points="22.9 5.3 2.1 2.17 2.19 1.61 22.9 4.73 22.9 5.3"/><polygon class="cls-99" points="22.9 5.88 2.02 2.73 2.1 2.17 22.9 5.3 22.9 5.88"/><polygon class="cls-99" points="22.9 6.45 1.93 3.29 2.02 2.73 22.9 5.88 22.9 6.45"/><polygon class="cls-99" points="22.9 7.03 1.85 3.85 1.93 3.29 22.9 6.45 22.9 7.03"/><polygon class="cls-99" points="22.9 7.61 1.76 4.43 1.85 3.85 22.9 7.03 22.9 7.61"/><polygon class="cls-85" points="22.9 8.2 1.68 5 1.76 4.43 22.9 7.61 22.9 8.2"/><polygon class="cls-100" points="22.9 8.78 1.59 5.57 1.68 5 22.9 8.2 22.9 8.78"/><polygon class="cls-81" points="22.9 9.37 1.5 6.14 1.59 5.57 22.9 8.78 22.9 9.37"/><polygon class="cls-82" points="22.9 9.95 1.42 6.71 1.5 6.14 22.9 9.37 22.9 9.95"/><polygon class="cls-101" points="22.9 10.54 1.33 7.29 1.42 6.71 22.9 9.95 22.9 10.54"/><polygon class="cls-104" points="22.9 11.12 1.24 7.86 1.33 7.29 22.9 10.54 22.9 11.12"/><polygon class="cls-103" points="22.9 11.71 1.16 8.43 1.24 7.86 22.9 11.12 22.9 11.71"/><polygon class="cls-108" points="22.9 12.29 1.07 9 1.16 8.43 22.9 11.71 22.9 12.29"/><polygon class="cls-102" points="22.9 12.87 .99 9.57 1.07 9 22.9 12.29 22.9 12.87"/><polygon class="cls-109" points="22.9 13.46 .9 10.14 .99 9.57 22.9 12.87 22.9 13.46"/><polygon class="cls-110" points="22.9 14.04 .81 10.72 .9 10.14 22.9 13.46 22.9 14.04"/><polygon class="cls-107" points="22.9 14.63 .73 11.29 .81 10.72 22.9 14.04 22.9 14.63"/><polygon class="cls-78" points="22.9 15.21 .64 11.86 .73 11.29 22.9 14.63 22.9 15.21"/><polygon class="cls-83" points="22.9 15.8 .56 12.43 .64 11.86 22.9 15.21 22.9 15.8"/><polygon class="cls-84" points="22.9 16.38 .47 13 .56 12.43 22.9 15.8 22.9 16.38"/><polygon class="cls-79" points="22.9 16.97 .38 13.58 .47 13 22.9 16.38 22.9 16.97"/><polygon class="cls-80" points="22.9 17.55 .3 14.15 .38 13.58 22.9 16.97 22.9 17.55"/><polygon class="cls-106" points="22.9 18.14 .21 14.72 .3 14.15 22.9 17.55 22.9 18.14"/><polygon class="cls-105" points="22.9 18.72 .12 15.29 .21 14.72 22.9 18.14 22.9 18.72"/><polygon class="cls-16" points="22.9 19.31 .04 15.86 .12 15.29 22.9 18.72 22.9 19.31"/><polygon class="cls-15" points="22.9 19.89 0 16.44 0 16.12 .04 15.86 22.9 19.31 22.9 19.89"/><polygon class="cls-11" points="22.9 20.48 0 17.03 0 16.44 22.9 19.89 22.9 20.48"/><polygon class="cls-12" points="22.9 21.06 0 17.61 0 17.03 22.9 20.48 22.9 21.06"/><polygon class="cls-14" points="22.9 21.65 0 18.2 0 17.61 22.9 21.06 22.9 21.65"/><polygon class="cls-13" points="22.9 22.23 0 18.78 0 18.2 22.9 21.65 22.9 22.23"/><polygon class="cls-20" points="22.9 22.82 0 19.37 0 18.78 22.9 22.23 22.9 22.82"/><polygon class="cls-21" points="22.9 23.4 0 19.95 0 19.37 22.9 22.82 22.9 23.4"/><polygon class="cls-22" points="22.9 23.99 0 20.54 0 19.95 22.9 23.4 22.9 23.99"/><polygon class="cls-17" points="22.9 24.57 0 21.12 0 20.54 22.9 23.99 22.9 24.57"/><polygon class="cls-18" points="22.9 25.16 0 21.7 0 21.12 22.9 24.57 22.9 25.16"/><polygon class="cls-19" points="22.9 25.74 0 22.29 0 21.7 22.9 25.16 22.9 25.74"/><polygon class="cls-23" points="22.9 26.32 0 22.87 0 22.29 22.9 25.74 22.9 26.32"/><polygon class="cls-10" points="22.9 26.91 0 23.46 0 22.87 22.9 26.32 22.9 26.91"/><polygon class="cls-8" points="22.9 27.49 0 24.04 0 23.46 22.9 26.91 22.9 27.49"/><polygon class="cls-6" points="22.9 28.08 0 24.63 0 24.04 22.9 27.49 22.9 28.08"/><polygon class="cls-7" points="22.9 28.66 0 25.21 0 24.63 22.9 28.08 22.9 28.66"/><polygon class="cls-9" points="22.9 29.25 0 25.8 0 25.21 22.9 28.66 22.9 29.25"/><polygon class="cls-9" points="22.9 29.83 0 26.38 0 25.8 22.9 29.25 22.9 29.83"/><polygon class="cls-5" points="22.9 30.42 0 26.97 0 26.38 22.9 29.83 22.9 30.42"/><polygon class="cls-31" points="22.9 30.51 22.83 30.99 0 27.55 0 26.97 22.9 30.42 22.9 30.51"/><polygon class="cls-33" points="22.83 30.99 22.74 31.56 0 28.14 0 27.55 22.83 30.99"/><polygon class="cls-33" points="22.74 31.56 22.66 32.14 0 28.72 0 28.14 22.74 31.56"/><polygon class="cls-28" points="22.66 32.14 22.57 32.71 0 29.31 0 28.72 22.66 32.14"/><polygon class="cls-27" points="22.57 32.71 22.48 33.28 0 29.89 0 29.31 22.57 32.71"/><polygon class="cls-32" points="22.48 33.28 22.4 33.85 0 30.48 0 29.89 22.48 33.28"/><polygon class="cls-30" points="22.4 33.85 22.31 34.42 0 31.06 0 30.48 22.4 33.85"/><polygon class="cls-29" points="22.31 34.42 22.23 34.99 0 31.65 0 31.06 22.31 34.42"/><polygon class="cls-90" points="22.23 34.99 22.14 35.57 0 32.23 0 31.65 22.23 34.99"/><polygon class="cls-88" points="22.14 35.57 22.05 36.14 0 32.82 0 32.23 22.14 35.57"/><polygon class="cls-89" points="22.05 36.14 21.97 36.71 0 33.4 0 32.82 22.05 36.14"/><polygon class="cls-93" points="21.97 36.71 21.88 37.28 0 33.99 0 33.4 21.97 36.71"/><polygon class="cls-92" points="21.88 37.28 21.79 37.85 0 34.57 0 33.99 21.88 37.28"/><polygon class="cls-91" points="21.79 37.85 21.71 38.43 0 35.15 0 34.57 21.79 37.85"/><polygon class="cls-95" points="21.71 38.43 21.62 39 0 35.74 0 35.15 21.71 38.43"/><polygon class="cls-94" points="21.62 39 21.54 39.57 0 36.32 0 35.74 21.62 39"/><polygon class="cls-98" points="21.54 39.57 21.45 40.14 0 36.91 0 36.32 21.54 39.57"/><polygon class="cls-97" points="21.45 40.14 21.36 40.71 0 37.49 0 36.91 21.45 40.14"/><polygon class="cls-96" points="21.36 40.71 21.28 41.28 0 38.08 0 37.49 21.36 40.71"/><polygon class="cls-26" points="21.28 41.28 21.19 41.86 0 38.66 0 38.08 21.28 41.28"/><polygon class="cls-24" points="21.19 41.86 21.11 42.43 0 39.25 0 38.66 21.19 41.86"/><polygon class="cls-25" points="21.11 42.43 21.02 43 0 39.83 0 39.25 21.11 42.43"/><polygon class="cls-34" points="21.02 43 20.93 43.57 0 40.42 0 39.83 21.02 43"/><polygon class="cls-87" points="20.93 43.57 20.85 44.14 0 41 0 40.42 20.93 43.57"/><polygon class="cls-77" points="20.85 44.14 20.76 44.72 0 41.59 0 41 20.85 44.14"/><polygon class="cls-70" points="20.76 44.72 20.67 45.29 0 42.17 0 41.59 20.76 44.72"/><polygon class="cls-86" points="20.67 45.29 20.59 45.86 0 42.76 0 42.17 20.67 45.29"/><polygon class="cls-86" points="20.59 45.86 20.5 46.43 0 43.34 0 42.76 20.59 45.86"/><polygon class="cls-68" points="20.5 46.43 20.46 46.7 18.39 46.7 0 43.93 0 43.34 20.5 46.43"/><polygon class="cls-69" points="14.5 46.7 0 44.51 0 43.93 18.39 46.7 14.5 46.7"/><polygon class="cls-69" points="10.62 46.7 0 45.1 0 44.51 14.5 46.7 10.62 46.7"/><polygon class="cls-62" points="6.74 46.7 0 45.68 0 45.1 10.62 46.7 6.74 46.7"/><polygon class="cls-60" points="2.86 46.7 0 46.27 0 45.68 6.74 46.7 2.86 46.7"/><polygon class="cls-60" points="0 46.27 2.86 46.7 0 46.7 0 46.27"/></g><g class="cls-4"><polygon class="cls-28" points="32.41 34.19 31.18 34 32.41 34 32.41 34.19"/><polygon class="cls-27" points="32.41 34.77 27.3 34 31.18 34 32.41 34.19 32.41 34.77"/><polygon class="cls-32" points="32.41 35.36 23.42 34 27.3 34 32.41 34.77 32.41 35.36"/><polygon class="cls-30" points="32.41 35.94 19.54 34 23.42 34 32.41 35.36 32.41 35.94"/><polygon class="cls-29" points="32.41 36.53 18.13 34.38 18.19 34 19.54 34 32.41 35.94 32.41 36.53"/><polygon class="cls-90" points="32.41 37.11 18.04 34.95 18.13 34.38 32.41 36.53 32.41 37.11"/><polygon class="cls-88" points="32.41 37.7 17.96 35.52 18.04 34.95 32.41 37.11 32.41 37.7"/><polygon class="cls-89" points="32.41 38.28 17.87 36.09 17.96 35.52 32.41 37.7 32.41 38.28"/><polygon class="cls-93" points="32.41 38.87 17.79 36.67 17.87 36.09 32.41 38.28 32.41 38.87"/><polygon class="cls-92" points="32.41 39.45 17.7 37.24 17.79 36.67 32.41 38.87 32.41 39.45"/><polygon class="cls-91" points="32.41 40.04 17.61 37.81 17.61 37.8 17.7 37.24 32.41 39.45 32.41 40.04"/><polygon class="cls-95" points="32.41 40.62 17.61 38.39 17.61 37.81 32.41 40.04 32.41 40.62"/><polygon class="cls-94" points="32.41 41.21 17.61 38.98 17.61 38.39 32.41 40.62 32.41 41.21"/><polygon class="cls-98" points="32.41 41.79 17.61 39.56 17.61 38.98 32.41 41.21 32.41 41.79"/><polygon class="cls-97" points="32.41 42.38 17.61 40.15 17.61 39.56 32.41 41.79 32.41 42.38"/><polygon class="cls-96" points="32.41 42.96 17.61 40.73 17.61 40.15 32.41 42.38 32.41 42.96"/><polygon class="cls-26" points="32.41 43.55 17.61 41.32 17.61 40.73 32.41 42.96 32.41 43.55"/><polygon class="cls-24" points="32.41 44.13 17.61 41.9 17.61 41.32 32.41 43.55 32.41 44.13"/><polygon class="cls-25" points="32.41 44.72 17.61 42.49 17.61 41.9 32.41 44.13 32.41 44.72"/><polygon class="cls-34" points="32.41 45.3 17.61 43.07 17.61 42.49 32.41 44.72 32.41 45.3"/><polygon class="cls-87" points="32.41 45.89 17.61 43.66 17.61 43.07 32.41 45.3 32.41 45.89"/><polygon class="cls-77" points="32.41 46.47 17.61 44.24 17.61 43.66 32.41 45.89 32.41 46.47"/><polygon class="cls-70" points="32.41 47.06 17.61 44.83 17.61 44.24 32.41 46.47 32.41 47.06"/><polygon class="cls-86" points="32.41 47.64 17.61 45.41 17.61 44.83 32.41 47.06 32.41 47.64"/><polygon class="cls-86" points="32.41 48.22 17.61 46 17.61 45.41 32.41 47.64 32.41 48.22"/><polygon class="cls-68" points="32.41 48.81 17.61 46.58 17.61 46 32.41 48.22 32.41 48.81"/><polygon class="cls-69" points="32.41 49.39 17.61 47.17 17.61 46.58 32.41 48.81 32.41 49.39"/><polygon class="cls-69" points="32.41 49.98 17.61 47.75 17.61 47.17 32.41 49.39 32.41 49.98"/><polygon class="cls-62" points="32.41 50.56 17.61 48.34 17.61 47.75 32.41 49.98 32.41 50.56"/><polygon class="cls-60" points="32.41 51.15 17.61 48.92 17.61 48.34 32.41 50.56 32.41 51.15"/><polygon class="cls-60" points="32.41 51.73 17.61 49.5 17.61 48.92 32.41 51.15 32.41 51.73"/><polygon class="cls-54" points="32.41 52.32 17.61 50.09 17.61 49.5 32.41 51.73 32.41 52.32"/><polygon class="cls-65" points="32.41 52.58 32.36 52.9 17.61 50.67 17.61 50.09 32.41 52.32 32.41 52.58"/><polygon class="cls-65" points="32.36 52.9 32.29 53.34 17.61 51.13 17.61 50.67 32.36 52.9"/><polygon class="cls-65" points="32.29 53.34 32.23 53.79 17.61 51.59 17.61 51.13 32.29 53.34"/><polygon class="cls-55" points="32.23 53.79 32.16 54.24 17.61 52.04 17.61 51.59 32.23 53.79"/><polygon class="cls-61" points="32.16 54.24 32.09 54.68 17.61 52.5 17.61 52.04 32.16 54.24"/><polygon class="cls-64" points="32.09 54.68 32.02 55.13 17.61 52.96 17.61 52.5 32.09 54.68"/><polygon class="cls-38" points="32.02 55.13 31.96 55.58 17.61 53.41 17.61 52.96 32.02 55.13"/><polygon class="cls-43" points="31.96 55.58 31.89 56.02 17.61 53.87 17.61 53.41 31.96 55.58"/><polygon class="cls-42" points="31.89 56.02 31.82 56.47 17.61 54.33 17.61 53.87 31.89 56.02"/><polygon class="cls-42" points="31.82 56.47 31.76 56.92 17.61 54.78 17.61 54.33 31.82 56.47"/><polygon class="cls-41" points="31.76 56.92 31.69 57.36 17.61 55.24 17.61 54.78 31.76 56.92"/><polygon class="cls-45" points="31.69 57.36 31.62 57.81 17.61 55.7 17.61 55.24 31.69 57.36"/><polygon class="cls-45" points="31.62 57.81 31.55 58.26 17.61 56.16 17.61 55.7 31.62 57.81"/><polygon class="cls-40" points="31.55 58.26 31.54 58.37 29.27 58.37 17.61 56.61 17.61 56.16 31.55 58.26"/><polygon class="cls-39" points="26.24 58.37 17.61 57.07 17.61 56.61 29.27 58.37 26.24 58.37"/><polygon class="cls-51" points="23.21 58.37 17.61 57.53 17.61 57.07 26.24 58.37 23.21 58.37"/><polygon class="cls-48" points="20.18 58.37 17.61 57.98 17.61 57.53 23.21 58.37 20.18 58.37"/><polygon class="cls-50" points="17.61 57.98 20.18 58.37 17.61 58.37 17.61 57.98"/><polygon class="cls-15" points="36.53 21.95 34.65 21.66 36.53 21.66 36.53 21.95"/><polygon class="cls-11" points="36.53 22.53 30.77 21.66 34.65 21.66 36.53 21.95 36.53 22.53"/><polygon class="cls-12" points="36.53 23.12 26.88 21.66 30.77 21.66 36.53 22.53 36.53 23.12"/><polygon class="cls-14" points="36.53 23.7 23 21.66 26.88 21.66 36.53 23.12 36.53 23.7"/><polygon class="cls-13" points="36.53 24.29 19.12 21.66 23 21.66 36.53 23.7 36.53 24.29"/><polygon class="cls-20" points="36.53 24.87 16.04 21.78 16.06 21.66 19.12 21.66 36.53 24.29 36.53 24.87"/><polygon class="cls-21" points="36.53 25.45 15.95 22.35 16.04 21.78 36.53 24.87 36.53 25.45"/><polygon class="cls-22" points="36.53 26.04 15.87 22.93 15.95 22.35 36.53 25.45 36.53 26.04"/><polygon class="cls-17" points="36.53 26.62 15.78 23.5 15.87 22.93 36.53 26.04 36.53 26.62"/><polygon class="cls-18" points="36.53 27.21 15.69 24.07 15.78 23.5 36.53 26.62 36.53 27.21"/><polygon class="cls-19" points="36.53 27.79 15.61 24.64 15.69 24.07 36.53 27.21 36.53 27.79"/><polygon class="cls-23" points="36.53 28.38 15.52 25.21 15.61 24.64 36.53 27.79 36.53 28.38"/><polygon class="cls-10" points="36.53 28.96 15.44 25.78 15.52 25.21 36.53 28.38 36.53 28.96"/><polygon class="cls-8" points="36.53 29.55 15.35 26.36 15.44 25.78 36.53 28.96 36.53 29.55"/><polygon class="cls-6" points="36.53 30.13 15.26 26.93 15.35 26.36 36.53 29.55 36.53 30.13"/><polygon class="cls-7" points="36.53 30.72 15.18 27.5 15.26 26.93 36.53 30.13 36.53 30.72"/><polygon class="cls-9" points="36.53 31.3 15.09 28.07 15.18 27.5 36.53 30.72 36.53 31.3"/><polygon class="cls-9" points="36.53 31.89 15.01 28.64 15.09 28.07 36.53 31.3 36.53 31.89"/><polygon class="cls-5" points="36.53 32.47 14.92 29.22 15.01 28.64 36.53 31.89 36.53 32.47"/><polygon class="cls-31" points="36.53 33.06 14.83 29.79 14.92 29.22 36.53 32.47 36.53 33.06"/><polygon class="cls-33" points="36.53 33.64 14.75 30.36 14.83 29.79 36.53 33.06 36.53 33.64"/><polygon class="cls-33" points="36.53 34.23 14.66 30.93 14.75 30.36 36.53 33.64 36.53 34.23"/><polygon class="cls-28" points="36.53 34.81 14.57 31.5 14.66 30.93 36.53 34.23 36.53 34.81"/><polygon class="cls-27" points="36.53 35.4 14.49 32.07 14.57 31.5 36.53 34.81 36.53 35.4"/><polygon class="cls-32" points="36.53 35.98 14.4 32.65 14.49 32.07 36.53 35.4 36.53 35.98"/><polygon class="cls-30" points="36.53 36.57 14.32 33.22 14.4 32.65 36.53 35.98 36.53 36.57"/><polygon class="cls-29" points="36.53 37.15 14.23 33.79 14.32 33.22 36.53 36.57 36.53 37.15"/><polygon class="cls-90" points="36.53 37.74 14.14 34.36 14.23 33.79 36.53 37.15 36.53 37.74"/><polygon class="cls-88" points="36.53 38.32 14.06 34.93 14.14 34.36 36.53 37.74 36.53 38.32"/><polygon class="cls-89" points="36.53 38.91 13.97 35.51 14.06 34.93 36.53 38.32 36.53 38.91"/><polygon class="cls-93" points="36.53 39.49 13.89 36.08 13.97 35.51 36.53 38.91 36.53 39.49"/><polygon class="cls-92" points="36.53 40.07 13.8 36.65 13.89 36.08 36.53 39.49 36.53 40.07"/><polygon class="cls-91" points="36.53 40.66 13.71 37.22 13.8 36.65 36.53 40.07 36.53 40.66"/><polygon class="cls-95" points="36.53 41.24 13.63 37.79 13.71 37.22 36.53 40.66 36.53 41.24"/><polygon class="cls-94" points="36.53 41.83 13.55 38.37 13.55 38.28 13.63 37.79 36.53 41.24 36.53 41.83"/><polygon class="cls-98" points="36.53 42.41 13.55 38.95 13.55 38.37 36.53 41.83 36.53 42.41"/><polygon class="cls-97" points="36.53 43 13.55 39.54 13.55 38.95 36.53 42.41 36.53 43"/><polygon class="cls-96" points="36.53 43.58 13.55 40.12 13.55 39.54 36.53 43 36.53 43.58"/><polygon class="cls-26" points="36.53 44.17 13.55 40.71 13.55 40.12 36.53 43.58 36.53 44.17"/><polygon class="cls-24" points="36.53 44.75 13.55 41.29 13.55 40.71 36.53 44.17 36.53 44.75"/><polygon class="cls-25" points="36.53 45.34 13.55 41.88 13.55 41.29 36.53 44.75 36.53 45.34"/><polygon class="cls-34" points="36.53 45.92 13.55 42.46 13.55 41.88 36.53 45.34 36.53 45.92"/><polygon class="cls-87" points="36.53 46.51 13.55 43.04 13.55 42.46 36.53 45.92 36.53 46.51"/><polygon class="cls-77" points="36.53 47.09 13.55 43.63 13.55 43.04 36.53 46.51 36.53 47.09"/><polygon class="cls-70" points="36.53 47.68 13.55 44.21 13.55 43.63 36.53 47.09 36.53 47.68"/><polygon class="cls-86" points="36.53 48.26 13.55 44.8 13.55 44.21 36.53 47.68 36.53 48.26"/><polygon class="cls-86" points="36.53 48.85 13.55 45.38 13.55 44.8 36.53 48.26 36.53 48.85"/><polygon class="cls-68" points="36.53 49.43 13.55 45.97 13.55 45.38 36.53 48.85 36.53 49.43"/><polygon class="cls-69" points="36.53 50.02 13.55 46.55 13.55 45.97 36.53 49.43 36.53 50.02"/><polygon class="cls-69" points="36.53 50.6 13.55 47.14 13.55 46.55 36.53 50.02 36.53 50.6"/><polygon class="cls-62" points="36.53 51.19 13.55 47.72 13.55 47.14 36.53 50.6 36.53 51.19"/><polygon class="cls-60" points="36.53 51.77 13.55 48.31 13.55 47.72 36.53 51.19 36.53 51.77"/><polygon class="cls-60" points="36.53 52.32 36.53 52.35 13.55 48.89 13.55 48.31 36.53 51.77 36.53 52.32"/><polygon class="cls-54" points="36.53 52.35 36.44 52.93 13.55 49.48 13.55 48.89 36.53 52.35"/><polygon class="cls-65" points="36.44 52.93 36.36 53.5 13.55 50.06 13.55 49.48 36.44 52.93"/><polygon class="cls-65" points="36.36 53.5 36.29 53.94 13.55 50.52 13.55 50.06 36.36 53.5"/><polygon class="cls-65" points="36.29 53.94 36.22 54.39 13.55 50.98 13.55 50.52 36.29 53.94"/><polygon class="cls-55" points="36.22 54.39 36.15 54.84 13.55 51.43 13.55 50.98 36.22 54.39"/><polygon class="cls-61" points="36.15 54.84 36.09 55.28 13.55 51.89 13.55 51.43 36.15 54.84"/><polygon class="cls-64" points="36.09 55.28 36.02 55.73 13.55 52.35 13.55 51.89 36.09 55.28"/><polygon class="cls-38" points="36.02 55.73 35.95 56.18 13.55 52.8 13.55 52.35 36.02 55.73"/><polygon class="cls-43" points="35.95 56.18 35.88 56.62 13.55 53.26 13.55 52.8 35.95 56.18"/><polygon class="cls-42" points="35.88 56.62 35.82 57.07 13.55 53.72 13.55 53.26 35.88 56.62"/><polygon class="cls-42" points="35.82 57.07 35.75 57.52 13.55 54.17 13.55 53.72 35.82 57.07"/><polygon class="cls-41" points="35.75 57.52 35.68 57.96 13.55 54.63 13.55 54.17 35.75 57.52"/><polygon class="cls-45" points="35.68 57.96 35.62 58.41 13.55 55.09 13.55 54.63 35.68 57.96"/><polygon class="cls-45" points="35.62 58.41 35.55 58.86 13.55 55.54 13.55 55.09 35.62 58.41"/><polygon class="cls-40" points="35.55 58.86 35.48 59.3 13.55 56 13.55 55.54 35.55 58.86"/><polygon class="cls-39" points="35.48 59.3 35.41 59.75 13.55 56.46 13.55 56 35.48 59.3"/><polygon class="cls-51" points="35.41 59.75 35.35 60.2 13.55 56.91 13.55 56.46 35.41 59.75"/><polygon class="cls-48" points="35.35 60.2 35.28 60.64 13.55 57.37 13.55 56.91 35.35 60.2"/><polygon class="cls-50" points="35.28 60.64 35.21 61.09 13.55 57.83 13.55 57.37 35.28 60.64"/><polygon class="cls-53" points="35.21 61.09 35.14 61.54 13.55 58.28 13.55 57.83 35.21 61.09"/><polygon class="cls-53" points="35.14 61.54 35.08 61.98 13.55 58.74 13.55 58.28 35.14 61.54"/><polygon class="cls-52" points="35.08 61.98 35.01 62.43 13.55 59.2 13.55 58.74 35.08 61.98"/><polygon class="cls-49" points="35.01 62.43 34.94 62.88 13.55 59.65 13.55 59.2 35.01 62.43"/><polygon class="cls-47" points="34.94 62.88 34.88 63.32 13.55 60.11 13.55 59.65 34.94 62.88"/><polygon class="cls-56" points="34.88 63.32 34.81 63.77 13.55 60.57 13.55 60.11 34.88 63.32"/><polygon class="cls-58" points="34.81 63.77 34.74 64.22 13.55 61.02 13.55 60.57 34.81 63.77"/><polygon class="cls-57" points="34.74 64.22 34.67 64.66 13.55 61.48 13.55 61.02 34.74 64.22"/><polygon class="cls-63" points="34.67 64.66 34.61 65.11 13.55 61.94 13.55 61.48 34.67 64.66"/><polygon class="cls-63" points="34.61 65.11 34.54 65.56 13.55 62.39 13.55 61.94 34.61 65.11"/><polygon class="cls-59" points="34.54 65.56 34.47 66 13.55 62.85 13.55 62.39 34.54 65.56"/><polygon class="cls-44" points="34.47 66 34.4 66.45 13.55 63.31 13.55 62.85 34.47 66"/><polygon class="cls-44" points="34.4 66.45 34.34 66.9 13.55 63.76 13.55 63.31 34.4 66.45"/><polygon class="cls-46" points="34.34 66.9 34.27 67.34 13.55 64.22 13.55 63.76 34.34 66.9"/><polygon class="cls-67" points="34.27 67.34 34.2 67.79 13.55 64.68 13.55 64.22 34.27 67.34"/><polygon class="cls-66" points="34.2 67.79 34.14 68.24 13.55 65.13 13.55 64.68 34.2 67.79"/><polygon class="cls-66" points="34.14 68.24 34.12 68.36 31.93 68.36 13.55 65.59 13.55 65.13 34.14 68.24"/><polygon class="cls-73" points="28.9 68.36 13.55 66.05 13.55 65.59 31.93 68.36 28.9 68.36"/><polygon class="cls-74" points="25.87 68.36 13.55 66.51 13.55 66.05 28.9 68.36 25.87 68.36"/><polygon class="cls-75" points="22.84 68.36 13.55 66.96 13.55 66.51 25.87 68.36 22.84 68.36"/><polygon class="cls-75" points="19.81 68.36 13.55 67.42 13.55 66.96 22.84 68.36 19.81 68.36"/><polygon class="cls-76" points="16.78 68.36 13.55 67.88 13.55 67.42 19.81 68.36 16.78 68.36"/><polygon class="cls-71" points="13.74 68.36 13.55 68.33 13.55 67.88 16.78 68.36 13.74 68.36"/><polygon class="cls-72" points="13.55 68.33 13.74 68.36 13.55 68.36 13.55 68.33"/></g></g><g><path class="cls-2" d="M59.46,44.78c-3.07,0-6.18-1.07-8.62-3.25l2.64-3.16c1.83,1.51,3.74,2.47,6.06,2.47,1.83,0,2.93-.72,2.93-1.91v-.06c0-1.13-.7-1.71-4.09-2.58-4.09-1.04-6.73-2.18-6.73-6.21v-.06c0-3.68,2.96-6.12,7.11-6.12,2.96,0,5.48,.93,7.54,2.58l-2.32,3.37c-1.8-1.25-3.57-2-5.28-2s-2.61,.78-2.61,1.77v.06c0,1.33,.87,1.77,4.38,2.67,4.12,1.07,6.44,2.55,6.44,6.09v.06c0,4.03-3.08,6.29-7.46,6.29Z"/><path class="cls-2" d="M89.53,44.49l-1.86-4.55h-8.59l-1.86,4.55h-4.55l8.7-20.45h4.12l8.7,20.45h-4.67Zm-6.15-15.08l-2.7,6.58h5.4l-2.7-6.58Z"/><path class="cls-2" d="M101.39,44.49V24.18h4.47v16.24h10.12v4.06h-14.59Z"/><path class="cls-2" d="M139.09,44.49l-1.86-4.55h-8.59l-1.86,4.55h-4.55l8.7-20.45h4.12l8.7,20.45h-4.67Zm-6.15-15.08l-2.7,6.58h5.4l-2.7-6.58Z"/><path class="cls-2" d="M166.82,44.49v-13.26l-5.71,8.67h-.12l-5.66-8.59v13.17h-4.38V24.18h4.82l5.34,8.59,5.34-8.59h4.81v20.3h-4.44Z"/><path class="cls-2" d="M195.29,44.49l-1.86-4.55h-8.59l-1.86,4.55h-4.55l8.7-20.45h4.12l8.7,20.45h-4.67Zm-6.15-15.08l-2.7,6.58h5.4l-2.7-6.58Z"/><path class="cls-2" d="M215.48,28.3v16.19h-4.47V28.3h-6.18v-4.12h16.82v4.12h-6.18Z"/></g></g></g></svg>